<?xml version="1.0" encoding="utf-8"?>
<!-- Svg Vector Icons : http://www.onlinewebfonts.com/icon -->
<!DOCTYPE svg PUBLIC "-//W3C//DTD SVG 1.1//EN" "http://www.w3.org/Graphics/SVG/1.1/DTD/svg11.dtd">
<svg version="1.1" xmlns="http://www.w3.org/2000/svg" xmlns:xlink="http://www.w3.org/1999/xlink" x="0px" y="0px" viewBox="0 0 1000 1000" enable-background="new 0 0 1000 1000" xml:space="preserve">
<metadata> Svg Vector Icons : http://www.onlinewebfonts.com/icon </metadata>
<g><g transform="translate(0.000000,511.000000) scale(0.100000,-0.100000)"><path d="M760.8,4082.1c-251.3-66.9-478.3-261.5-595.9-508.7L100,3435.5V111.4v-3324.1l64.9-137.8C290.5-3614,550-3822.8,817.5-3871.4c160.1-30.4,8215-28.4,8356.9,2c322.3,68.9,589.8,310.1,685.1,622.3c40.5,127.7,40.5,200.7,40.5,3358.6c0,3105.2-2,3234.9-38.5,3352.5c-70.9,229.1-216.9,411.5-427.7,535.1c-210.8,121.6,56.7,115.5-4449,113.5C1456,4112.5,854,4108.4,760.8,4082.1z M9318.3,3928c162.1-77,320.2-233.1,391.2-387.1l58.8-125.7V111.4v-3303.8l-58.8-125.7c-62.8-139.8-216.9-300-348.6-366.9c-176.3-89.2-99.3-87.2-4436.9-81.1l-4134.9,6.1l-135.8,64.9c-164.2,77-295.9,206.7-375,366.9l-56.8,115.5V111.4v3324.1l56.8,115.5c101.3,204.7,302,368.9,514.8,419.6c44.6,10.1,1864.7,16.2,4242.3,16.2l4165.3-4.1L9318.3,3928z"/><path d="M5967.8,1649.8c-127.7-54.7-218.9-174.3-253.4-326.3c-16.2-85.1,18.3-89.2,58.8-8.1c73,139.9,251.3,223,393.2,186.5c200.7-54.7,279.7-283.8,184.5-537.1c-56.8-154-186.5-324.3-458.1-602c-125.7-129.7-229-241.2-229-247.3c0-8.1,206.7-14.2,462.1-14.2H6586l48.7,133.8c26.3,73,40.5,137.8,34.5,143.9c-6.1,8.1-34.5-6.1-58.8-32.4c-26.3-24.3-79.1-52.7-117.6-62.8c-73-22.3-565.5-28.4-565.5-8.1c0,6.1,93.2,111.5,208.8,233.1c405.4,433.8,525,695.2,421.6,920.2c-75,162.2-225,253.4-411.5,253.4C6087.4,1680.2,6006.4,1666,5967.8,1649.8z"/><path d="M3738.3,616.1c-139.9-24.3-255.4-46.6-257.4-48.6c-4,0-6.1-16.2-6.1-38.5c0-32.4,20.3-38.5,154-46.6c255.4-16.2,310.1-87.2,431.7-559.4l79-304l-66.9-119.6c-178.4-322.3-409.4-640.5-498.6-687.1c-50.7-24.3-60.8-22.3-141.9,36.5c-56.7,40.5-113.5,64.8-154,64.8c-184.4,0-235.1-255.4-66.9-342.5c225-115.5,470.2,79,831,658.7l137.8,223l34.5-156.1c62.8-293.9,133.8-559.4,162.2-616.2c42.6-79,127.7-139.8,196.6-139.8c133.8,0,360.8,182.4,512.8,413.5c75,111.5,77,119.6,42.6,145.9c-34.4,24.3-42.6,18.3-93.2-58.8c-113.5-178.4-281.7-283.8-338.5-210.8c-32.4,38.5-79,198.6-178.4,618.2l-93.2,393.2l54.7,93.2c83.1,143.9,225,322.3,302,381c58.8,44.6,83.1,50.7,156.1,40.5c289.8-40.5,293.9-40.5,348.6,14.2c117.6,117.6,22.3,298-160.1,298c-54.7,0-127.7-18.3-176.3-42.6c-125.7-62.8-306-245.2-435.8-437.8c-62.8-93.2-121.6-162.1-127.7-154c-8.1,10.1-34.5,89.2-58.8,178.4c-79,275.6-192.6,458.1-283.8,454C4016,664.8,3878.1,642.5,3738.3,616.1z"/></g></g>
</svg>